<mxfile host="app.diagrams.net" agent="Mozilla/5.0 (Windows NT 10.0; Win64; x64) AppleWebKit/537.36 (KHTML, like Gecko) Chrome/129.0.0.0 Safari/537.36" version="24.7.16">
  <diagram id="C5RBs43oDa-KdzZeNtuy" name="Page-1">
    <mxGraphModel grid="1" page="1" gridSize="10" guides="1" tooltips="1" connect="1" arrows="1" fold="1" pageScale="1" pageWidth="827" pageHeight="1169" math="0" shadow="0">
      <root>
        <mxCell id="WIyWlLk6GJQsqaUBKTNV-0" />
        <mxCell id="WIyWlLk6GJQsqaUBKTNV-1" parent="WIyWlLk6GJQsqaUBKTNV-0" />
        <mxCell id="f0bGjhomK1BL4XSHQhLc-6" value="" style="endArrow=none;html=1;rounded=0;entryX=0.5;entryY=1.012;entryDx=0;entryDy=0;entryPerimeter=0;exitX=0.462;exitY=0.015;exitDx=0;exitDy=0;exitPerimeter=0;" edge="1" parent="WIyWlLk6GJQsqaUBKTNV-1" source="9AFrQC5tuZRdLCmCFJYH-1" target="5TZPlUDZTr1wL6foJFkj-35">
          <mxGeometry width="50" height="50" relative="1" as="geometry">
            <mxPoint x="-65.00000000000001" y="-1097" as="sourcePoint" />
            <mxPoint x="-15.000000000000014" y="-1147" as="targetPoint" />
          </mxGeometry>
        </mxCell>
        <mxCell id="9AFrQC5tuZRdLCmCFJYH-14" value="" style="endArrow=none;html=1;rounded=0;entryX=0.507;entryY=0.985;entryDx=0;entryDy=0;entryPerimeter=0;exitX=0.5;exitY=0;exitDx=0;exitDy=0;" edge="1" parent="WIyWlLk6GJQsqaUBKTNV-1" source="5TZPlUDZTr1wL6foJFkj-48" target="5TZPlUDZTr1wL6foJFkj-33">
          <mxGeometry width="50" height="50" relative="1" as="geometry">
            <mxPoint x="390" y="-740" as="sourcePoint" />
            <mxPoint x="440" y="-790" as="targetPoint" />
          </mxGeometry>
        </mxCell>
        <mxCell id="9AFrQC5tuZRdLCmCFJYH-19" value="" style="endArrow=none;html=1;rounded=0;entryX=0.779;entryY=1.016;entryDx=0;entryDy=0;entryPerimeter=0;exitX=0.5;exitY=0;exitDx=0;exitDy=0;" edge="1" parent="WIyWlLk6GJQsqaUBKTNV-1" source="5TZPlUDZTr1wL6foJFkj-18" target="5TZPlUDZTr1wL6foJFkj-49">
          <mxGeometry width="50" height="50" relative="1" as="geometry">
            <mxPoint x="390" y="-640" as="sourcePoint" />
            <mxPoint x="440" y="-690" as="targetPoint" />
          </mxGeometry>
        </mxCell>
        <mxCell id="f0bGjhomK1BL4XSHQhLc-12" value="" style="endArrow=diamondThin;endFill=0;endSize=24;html=1;rounded=0;entryX=0.5;entryY=1.041;entryDx=0;entryDy=0;entryPerimeter=0;exitX=0.5;exitY=0;exitDx=0;exitDy=0;" edge="1" parent="WIyWlLk6GJQsqaUBKTNV-1" source="5TZPlUDZTr1wL6foJFkj-14" target="5TZPlUDZTr1wL6foJFkj-13">
          <mxGeometry width="160" relative="1" as="geometry">
            <mxPoint x="110" y="-570" as="sourcePoint" />
            <mxPoint x="270" y="-570" as="targetPoint" />
            <Array as="points" />
          </mxGeometry>
        </mxCell>
        <mxCell id="f0bGjhomK1BL4XSHQhLc-20" value="" style="endArrow=none;html=1;rounded=0;exitX=1.021;exitY=0.307;exitDx=0;exitDy=0;exitPerimeter=0;entryX=0.021;entryY=0.419;entryDx=0;entryDy=0;entryPerimeter=0;" edge="1" parent="WIyWlLk6GJQsqaUBKTNV-1" source="5TZPlUDZTr1wL6foJFkj-15" target="5TZPlUDZTr1wL6foJFkj-19">
          <mxGeometry width="50" height="50" relative="1" as="geometry">
            <mxPoint x="-685.94" y="-385.02199999999993" as="sourcePoint" />
            <mxPoint x="45" y="-395" as="targetPoint" />
          </mxGeometry>
        </mxCell>
        <mxCell id="f0bGjhomK1BL4XSHQhLc-15" value="" style="endArrow=none;html=1;rounded=0;entryX=0.471;entryY=1;entryDx=0;entryDy=0;entryPerimeter=0;exitX=0.5;exitY=0;exitDx=0;exitDy=0;" edge="1" parent="WIyWlLk6GJQsqaUBKTNV-1" source="5TZPlUDZTr1wL6foJFkj-16" target="5TZPlUDZTr1wL6foJFkj-15">
          <mxGeometry width="50" height="50" relative="1" as="geometry">
            <mxPoint x="20" y="-496" as="sourcePoint" />
            <mxPoint x="70" y="-546" as="targetPoint" />
          </mxGeometry>
        </mxCell>
        <mxCell id="9AFrQC5tuZRdLCmCFJYH-28" value="" style="endArrow=diamondThin;endFill=0;endSize=24;html=1;rounded=0;exitX=0.447;exitY=0.007;exitDx=0;exitDy=0;entryX=0.5;entryY=0.959;entryDx=0;entryDy=0;entryPerimeter=0;exitPerimeter=0;" edge="1" parent="WIyWlLk6GJQsqaUBKTNV-1" source="5TZPlUDZTr1wL6foJFkj-20" target="5TZPlUDZTr1wL6foJFkj-23">
          <mxGeometry width="160" relative="1" as="geometry">
            <mxPoint x="450" y="-560" as="sourcePoint" />
            <mxPoint x="610" y="-560" as="targetPoint" />
          </mxGeometry>
        </mxCell>
        <mxCell id="yZ9hM7ncI5iXYr6Q-MJC-0" value="" style="endArrow=none;html=1;rounded=0;entryX=0.126;entryY=0.99;entryDx=0;entryDy=0;entryPerimeter=0;exitX=0.073;exitY=0.667;exitDx=0;exitDy=0;exitPerimeter=0;" edge="1" parent="WIyWlLk6GJQsqaUBKTNV-1" source="yZ9hM7ncI5iXYr6Q-MJC-1" target="5TZPlUDZTr1wL6foJFkj-49">
          <mxGeometry width="50" height="50" relative="1" as="geometry">
            <mxPoint x="-60" y="-650" as="sourcePoint" />
            <mxPoint x="-10" y="-700" as="targetPoint" />
            <Array as="points">
              <mxPoint x="60" y="-420" />
            </Array>
          </mxGeometry>
        </mxCell>
        <mxCell id="9AFrQC5tuZRdLCmCFJYH-31" value="" style="endArrow=none;html=1;rounded=0;exitX=0.507;exitY=1.027;exitDx=0;exitDy=0;exitPerimeter=0;entryX=0.5;entryY=0;entryDx=0;entryDy=0;" edge="1" parent="WIyWlLk6GJQsqaUBKTNV-1" source="5TZPlUDZTr1wL6foJFkj-31" target="5TZPlUDZTr1wL6foJFkj-28">
          <mxGeometry width="50" height="50" relative="1" as="geometry">
            <mxPoint x="140" y="-1340" as="sourcePoint" />
            <mxPoint x="190" y="-1390" as="targetPoint" />
          </mxGeometry>
        </mxCell>
        <mxCell id="yZ9hM7ncI5iXYr6Q-MJC-24" value="" style="endArrow=none;html=1;rounded=0;exitX=1.004;exitY=0.174;exitDx=0;exitDy=0;entryX=-0.023;entryY=0.182;entryDx=0;entryDy=0;entryPerimeter=0;exitPerimeter=0;" edge="1" parent="WIyWlLk6GJQsqaUBKTNV-1" source="5TZPlUDZTr1wL6foJFkj-36" target="5TZPlUDZTr1wL6foJFkj-15">
          <mxGeometry width="50" height="50" relative="1" as="geometry">
            <mxPoint x="-340" y="-746" as="sourcePoint" />
            <mxPoint x="-380" y="-836" as="targetPoint" />
          </mxGeometry>
        </mxCell>
        <mxCell id="-sgrk4lkXn3Z4_CtWWZY-1" value="" style="endArrow=diamondThin;endFill=1;endSize=24;html=1;rounded=0;entryX=0.463;entryY=1.012;entryDx=0;entryDy=0;entryPerimeter=0;exitX=0.5;exitY=0;exitDx=0;exitDy=0;" edge="1" parent="WIyWlLk6GJQsqaUBKTNV-1" source="5TZPlUDZTr1wL6foJFkj-30" target="5TZPlUDZTr1wL6foJFkj-43">
          <mxGeometry width="160" relative="1" as="geometry">
            <mxPoint x="180" y="-1248" as="sourcePoint" />
            <mxPoint x="254.5" y="-1248" as="targetPoint" />
          </mxGeometry>
        </mxCell>
        <mxCell id="yZ9hM7ncI5iXYr6Q-MJC-38" value="" style="endArrow=none;html=1;rounded=0;exitX=0.007;exitY=0.957;exitDx=0;exitDy=0;exitPerimeter=0;entryX=1;entryY=0.5;entryDx=0;entryDy=0;" edge="1" parent="WIyWlLk6GJQsqaUBKTNV-1" source="5TZPlUDZTr1wL6foJFkj-13" target="yZ9hM7ncI5iXYr6Q-MJC-37">
          <mxGeometry width="50" height="50" relative="1" as="geometry">
            <mxPoint x="-110" y="-740" as="sourcePoint" />
            <mxPoint x="-60" y="-790" as="targetPoint" />
          </mxGeometry>
        </mxCell>
        <mxCell id="l8CWRU_g2g9f7LgcgFSw-0" value="" style="endArrow=none;html=1;rounded=0;entryX=0.541;entryY=1.05;entryDx=0;entryDy=0;entryPerimeter=0;exitX=1;exitY=0.22;exitDx=0;exitDy=0;exitPerimeter=0;" edge="1" parent="WIyWlLk6GJQsqaUBKTNV-1" source="5TZPlUDZTr1wL6foJFkj-12" target="5TZPlUDZTr1wL6foJFkj-11">
          <mxGeometry width="50" height="50" relative="1" as="geometry">
            <mxPoint x="-680" y="-720" as="sourcePoint" />
            <mxPoint x="-150" y="-760" as="targetPoint" />
            <Array as="points">
              <mxPoint x="-379" y="-720" />
            </Array>
          </mxGeometry>
        </mxCell>
        <mxCell id="l8CWRU_g2g9f7LgcgFSw-7" value="" style="endArrow=none;html=1;rounded=0;exitX=1.016;exitY=0.411;exitDx=0;exitDy=0;exitPerimeter=0;" edge="1" parent="WIyWlLk6GJQsqaUBKTNV-1" source="l8CWRU_g2g9f7LgcgFSw-6" target="5TZPlUDZTr1wL6foJFkj-13">
          <mxGeometry width="50" height="50" relative="1" as="geometry">
            <mxPoint x="-340" y="-730" as="sourcePoint" />
            <mxPoint x="-290" y="-780" as="targetPoint" />
          </mxGeometry>
        </mxCell>
        <mxCell id="19uUhVXneEvSgWzmzvUd-15" value="" style="endArrow=none;html=1;rounded=0;exitX=0;exitY=0.5;exitDx=0;exitDy=0;" edge="1" parent="WIyWlLk6GJQsqaUBKTNV-1" source="5TZPlUDZTr1wL6foJFkj-11">
          <mxGeometry width="50" height="50" relative="1" as="geometry">
            <mxPoint x="-200" y="-690" as="sourcePoint" />
            <mxPoint x="-580" y="-920" as="targetPoint" />
            <Array as="points">
              <mxPoint x="-580" y="-817" />
            </Array>
          </mxGeometry>
        </mxCell>
        <mxCell id="ilzKF72MAawPVHj94fBm-11" value="" style="endArrow=none;html=1;rounded=0;exitX=0.754;exitY=1.01;exitDx=0;exitDy=0;exitPerimeter=0;" edge="1" parent="WIyWlLk6GJQsqaUBKTNV-1" source="5TZPlUDZTr1wL6foJFkj-33" target="ilzKF72MAawPVHj94fBm-10">
          <mxGeometry width="50" height="50" relative="1" as="geometry">
            <mxPoint x="200" y="-690" as="sourcePoint" />
            <mxPoint x="250" y="-740" as="targetPoint" />
            <Array as="points">
              <mxPoint x="146" y="-750" />
              <mxPoint x="310" y="-750" />
              <mxPoint x="310" y="-601" />
            </Array>
          </mxGeometry>
        </mxCell>
        <mxCell id="ilzKF72MAawPVHj94fBm-17" value="" style="endArrow=none;html=1;rounded=0;exitX=1;exitY=0.5;exitDx=0;exitDy=0;entryX=0.024;entryY=0.31;entryDx=0;entryDy=0;entryPerimeter=0;" edge="1" parent="WIyWlLk6GJQsqaUBKTNV-1" source="5TZPlUDZTr1wL6foJFkj-25" target="ilzKF72MAawPVHj94fBm-16">
          <mxGeometry width="50" height="50" relative="1" as="geometry">
            <mxPoint x="620" y="-780" as="sourcePoint" />
            <mxPoint x="670" y="-830" as="targetPoint" />
          </mxGeometry>
        </mxCell>
        <mxCell id="ilzKF72MAawPVHj94fBm-18" value="" style="endArrow=none;html=1;rounded=0;exitX=0.464;exitY=1.016;exitDx=0;exitDy=0;exitPerimeter=0;entryX=0.348;entryY=0.003;entryDx=0;entryDy=0;entryPerimeter=0;" edge="1" parent="WIyWlLk6GJQsqaUBKTNV-1" source="ilzKF72MAawPVHj94fBm-16" target="ilzKF72MAawPVHj94fBm-9">
          <mxGeometry width="50" height="50" relative="1" as="geometry">
            <mxPoint x="700" y="-781.75" as="sourcePoint" />
            <mxPoint x="680" y="-671.75" as="targetPoint" />
          </mxGeometry>
        </mxCell>
        <mxCell id="Cc8PlxkIhpUyYdQkexqV-5" value="" style="endArrow=none;html=1;rounded=0;entryX=0;entryY=0.5;entryDx=0;entryDy=0;exitX=1;exitY=0.5;exitDx=0;exitDy=0;" edge="1" parent="WIyWlLk6GJQsqaUBKTNV-1" source="Cc8PlxkIhpUyYdQkexqV-3" target="5TZPlUDZTr1wL6foJFkj-51">
          <mxGeometry width="50" height="50" relative="1" as="geometry">
            <mxPoint x="-556.55" y="-1034" as="sourcePoint" />
            <mxPoint x="-506.55" y="-1084" as="targetPoint" />
          </mxGeometry>
        </mxCell>
        <mxCell id="Cc8PlxkIhpUyYdQkexqV-7" value="role" style="swimlane;fontStyle=0;childLayout=stackLayout;horizontal=1;startSize=26;fillColor=none;horizontalStack=0;resizeParent=1;resizeParentMax=0;resizeLast=0;collapsible=1;marginBottom=0;whiteSpace=wrap;html=1;" vertex="1" parent="WIyWlLk6GJQsqaUBKTNV-1">
          <mxGeometry x="-230" y="-520" width="140" height="80" as="geometry" />
        </mxCell>
        <mxCell id="Cc8PlxkIhpUyYdQkexqV-8" value="&lt;div&gt;id&lt;/div&gt;&lt;div&gt;name&lt;/div&gt;&lt;div&gt;description&lt;/div&gt;" style="text;strokeColor=none;fillColor=none;align=left;verticalAlign=top;spacingLeft=4;spacingRight=4;overflow=hidden;rotatable=0;points=[[0,0.5],[1,0.5]];portConstraint=eastwest;whiteSpace=wrap;html=1;" vertex="1" parent="Cc8PlxkIhpUyYdQkexqV-7">
          <mxGeometry y="26" width="140" height="54" as="geometry" />
        </mxCell>
        <mxCell id="Cc8PlxkIhpUyYdQkexqV-9" value="flight_crew_role" style="swimlane;fontStyle=0;childLayout=stackLayout;horizontal=1;startSize=26;fillColor=none;horizontalStack=0;resizeParent=1;resizeParentMax=0;resizeLast=0;collapsible=1;marginBottom=0;whiteSpace=wrap;html=1;" vertex="1" parent="WIyWlLk6GJQsqaUBKTNV-1">
          <mxGeometry x="-230" y="-631" width="140" height="80" as="geometry" />
        </mxCell>
        <mxCell id="Cc8PlxkIhpUyYdQkexqV-10" value="&lt;div&gt;id&lt;/div&gt;assignment_date&lt;div&gt;&lt;/div&gt;" style="text;strokeColor=none;fillColor=none;align=left;verticalAlign=top;spacingLeft=4;spacingRight=4;overflow=hidden;rotatable=0;points=[[0,0.5],[1,0.5]];portConstraint=eastwest;whiteSpace=wrap;html=1;" vertex="1" parent="Cc8PlxkIhpUyYdQkexqV-9">
          <mxGeometry y="26" width="140" height="54" as="geometry" />
        </mxCell>
        <mxCell id="ODth3-OMwyShCsxj6PBK-2" value="" style="endArrow=none;html=1;rounded=0;exitX=0.5;exitY=0;exitDx=0;exitDy=0;entryX=0.001;entryY=0.101;entryDx=0;entryDy=0;entryPerimeter=0;" edge="1" parent="WIyWlLk6GJQsqaUBKTNV-1" source="5TZPlUDZTr1wL6foJFkj-50" target="5TZPlUDZTr1wL6foJFkj-43">
          <mxGeometry width="50" height="50" relative="1" as="geometry">
            <mxPoint x="-343.55" y="-1287" as="sourcePoint" />
            <mxPoint x="-86.4500000000001" y="-1446.644" as="targetPoint" />
            <Array as="points">
              <mxPoint x="-760" y="-1440" />
            </Array>
          </mxGeometry>
        </mxCell>
        <mxCell id="ODth3-OMwyShCsxj6PBK-5" value="" style="endArrow=none;html=1;rounded=0;exitX=0.5;exitY=0;exitDx=0;exitDy=0;entryX=0.466;entryY=1.057;entryDx=0;entryDy=0;entryPerimeter=0;" edge="1" parent="WIyWlLk6GJQsqaUBKTNV-1" source="5TZPlUDZTr1wL6foJFkj-10" target="9AFrQC5tuZRdLCmCFJYH-2">
          <mxGeometry width="50" height="50" relative="1" as="geometry">
            <mxPoint x="-267" y="-890" as="sourcePoint" />
            <mxPoint x="-270" y="-1030" as="targetPoint" />
            <Array as="points">
              <mxPoint x="-385" y="-950" />
              <mxPoint x="-342" y="-950" />
            </Array>
          </mxGeometry>
        </mxCell>
        <mxCell id="Cc8PlxkIhpUyYdQkexqV-19" value="" style="endArrow=none;html=1;rounded=0;exitX=0.494;exitY=1.008;exitDx=0;exitDy=0;exitPerimeter=0;" edge="1" parent="WIyWlLk6GJQsqaUBKTNV-1" source="Cc8PlxkIhpUyYdQkexqV-10" target="Cc8PlxkIhpUyYdQkexqV-7">
          <mxGeometry width="50" height="50" relative="1" as="geometry">
            <mxPoint x="-250" y="-630" as="sourcePoint" />
            <mxPoint x="50" y="-305" as="targetPoint" />
          </mxGeometry>
        </mxCell>
        <mxCell id="Cc8PlxkIhpUyYdQkexqV-21" value="" style="endArrow=none;html=1;rounded=0;exitX=0.5;exitY=0;exitDx=0;exitDy=0;entryX=0.429;entryY=1;entryDx=0;entryDy=0;entryPerimeter=0;" edge="1" parent="WIyWlLk6GJQsqaUBKTNV-1" source="Cc8PlxkIhpUyYdQkexqV-9" target="5TZPlUDZTr1wL6foJFkj-41">
          <mxGeometry width="50" height="50" relative="1" as="geometry">
            <mxPoint x="120" y="-260" as="sourcePoint" />
            <mxPoint x="-67" y="-180" as="targetPoint" />
          </mxGeometry>
        </mxCell>
        <mxCell id="9AFrQC5tuZRdLCmCFJYH-24" value="" style="endArrow=none;html=1;rounded=0;entryX=1;entryY=0.5;entryDx=0;entryDy=0;exitX=0;exitY=0.5;exitDx=0;exitDy=0;" edge="1" parent="WIyWlLk6GJQsqaUBKTNV-1" source="5TZPlUDZTr1wL6foJFkj-21" target="5TZPlUDZTr1wL6foJFkj-19">
          <mxGeometry width="50" height="50" relative="1" as="geometry">
            <mxPoint x="500" y="-440" as="sourcePoint" />
            <mxPoint x="550" y="-490" as="targetPoint" />
          </mxGeometry>
        </mxCell>
        <mxCell id="ODth3-OMwyShCsxj6PBK-13" value="" style="group" connectable="0" vertex="1" parent="WIyWlLk6GJQsqaUBKTNV-1">
          <mxGeometry x="375" y="-487" width="172" height="137" as="geometry" />
        </mxCell>
        <mxCell id="yZ9hM7ncI5iXYr6Q-MJC-16" value="*" style="text;html=1;align=center;verticalAlign=middle;resizable=0;points=[];autosize=1;strokeColor=none;fillColor=none;" vertex="1" parent="ODth3-OMwyShCsxj6PBK-13">
          <mxGeometry x="71" width="30" height="30" as="geometry" />
        </mxCell>
        <mxCell id="5TZPlUDZTr1wL6foJFkj-20" value="seat" style="swimlane;fontStyle=0;childLayout=stackLayout;horizontal=1;startSize=26;fillColor=none;horizontalStack=0;resizeParent=1;resizeParentMax=0;resizeLast=0;collapsible=1;marginBottom=0;whiteSpace=wrap;html=1;" vertex="1" parent="ODth3-OMwyShCsxj6PBK-13">
          <mxGeometry x="32" y="27" width="140" height="110" as="geometry" />
        </mxCell>
        <mxCell id="5TZPlUDZTr1wL6foJFkj-21" value="&lt;div&gt;id&lt;/div&gt;&lt;div&gt;size&lt;/div&gt;&lt;div&gt;number&lt;/div&gt;&lt;div&gt;location&lt;/div&gt;&lt;div&gt;&lt;br&gt;&lt;/div&gt;" style="text;strokeColor=none;fillColor=none;align=left;verticalAlign=top;spacingLeft=4;spacingRight=4;overflow=hidden;rotatable=0;points=[[0,0.5],[1,0.5]];portConstraint=eastwest;whiteSpace=wrap;html=1;" vertex="1" parent="5TZPlUDZTr1wL6foJFkj-20">
          <mxGeometry y="26" width="140" height="84" as="geometry" />
        </mxCell>
        <mxCell id="yZ9hM7ncI5iXYr6Q-MJC-14" value="1" style="text;html=1;align=center;verticalAlign=middle;resizable=0;points=[];autosize=1;strokeColor=none;fillColor=none;" vertex="1" parent="ODth3-OMwyShCsxj6PBK-13">
          <mxGeometry y="66" width="30" height="30" as="geometry" />
        </mxCell>
        <mxCell id="ODth3-OMwyShCsxj6PBK-14" value="" style="group" connectable="0" vertex="1" parent="WIyWlLk6GJQsqaUBKTNV-1">
          <mxGeometry x="-1081.55" y="-1169" width="165" height="80" as="geometry" />
        </mxCell>
        <mxCell id="Cc8PlxkIhpUyYdQkexqV-2" value="document_type" style="swimlane;fontStyle=0;childLayout=stackLayout;horizontal=1;startSize=26;fillColor=none;horizontalStack=0;resizeParent=1;resizeParentMax=0;resizeLast=0;collapsible=1;marginBottom=0;whiteSpace=wrap;html=1;" vertex="1" parent="ODth3-OMwyShCsxj6PBK-14">
          <mxGeometry width="140" height="80" as="geometry" />
        </mxCell>
        <mxCell id="Cc8PlxkIhpUyYdQkexqV-3" value="&lt;div&gt;id&lt;/div&gt;&lt;div&gt;nombre&lt;/div&gt;&lt;div&gt;&lt;br&gt;&lt;/div&gt;" style="text;strokeColor=none;fillColor=none;align=left;verticalAlign=top;spacingLeft=4;spacingRight=4;overflow=hidden;rotatable=0;points=[[0,0.5],[1,0.5]];portConstraint=eastwest;whiteSpace=wrap;html=1;" vertex="1" parent="Cc8PlxkIhpUyYdQkexqV-2">
          <mxGeometry y="26" width="140" height="54" as="geometry" />
        </mxCell>
        <mxCell id="Cc8PlxkIhpUyYdQkexqV-4" value="1" style="text;html=1;align=center;verticalAlign=middle;resizable=0;points=[];autosize=1;strokeColor=none;fillColor=none;" vertex="1" parent="ODth3-OMwyShCsxj6PBK-14">
          <mxGeometry x="135" y="30" width="30" height="30" as="geometry" />
        </mxCell>
        <mxCell id="ODth3-OMwyShCsxj6PBK-15" value="" style="group" connectable="0" vertex="1" parent="WIyWlLk6GJQsqaUBKTNV-1">
          <mxGeometry x="-865" y="-1220" width="175" height="194" as="geometry" />
        </mxCell>
        <mxCell id="5TZPlUDZTr1wL6foJFkj-50" value="identification_document" style="swimlane;fontStyle=0;childLayout=stackLayout;horizontal=1;startSize=26;fillColor=none;horizontalStack=0;resizeParent=1;resizeParentMax=0;resizeLast=0;collapsible=1;marginBottom=0;whiteSpace=wrap;html=1;" vertex="1" parent="ODth3-OMwyShCsxj6PBK-15">
          <mxGeometry x="35" y="28" width="140" height="130" as="geometry" />
        </mxCell>
        <mxCell id="5TZPlUDZTr1wL6foJFkj-51" value="&lt;div&gt;id&lt;/div&gt;&lt;div&gt;document_number&lt;/div&gt;&lt;div&gt;issue_date&lt;/div&gt;&lt;div&gt;expiration_date&lt;/div&gt;&lt;div&gt;issue_country&lt;/div&gt;" style="text;strokeColor=none;fillColor=none;align=left;verticalAlign=top;spacingLeft=4;spacingRight=4;overflow=hidden;rotatable=0;points=[[0,0.5],[1,0.5]];portConstraint=eastwest;whiteSpace=wrap;html=1;" vertex="1" parent="5TZPlUDZTr1wL6foJFkj-50">
          <mxGeometry y="26" width="140" height="104" as="geometry" />
        </mxCell>
        <mxCell id="yZ9hM7ncI5iXYr6Q-MJC-34" value="1" style="text;html=1;align=center;verticalAlign=middle;resizable=0;points=[];autosize=1;strokeColor=none;fillColor=none;" vertex="1" parent="ODth3-OMwyShCsxj6PBK-15">
          <mxGeometry x="104.99999999999996" y="164" width="30" height="30" as="geometry" />
        </mxCell>
        <mxCell id="Cc8PlxkIhpUyYdQkexqV-6" value="1..*" style="text;html=1;align=center;verticalAlign=middle;resizable=0;points=[];autosize=1;strokeColor=none;fillColor=none;" vertex="1" parent="ODth3-OMwyShCsxj6PBK-15">
          <mxGeometry y="82" width="40" height="30" as="geometry" />
        </mxCell>
        <mxCell id="ODth3-OMwyShCsxj6PBK-4" value="1..*" style="text;html=1;align=center;verticalAlign=middle;resizable=0;points=[];autosize=1;strokeColor=none;fillColor=none;" vertex="1" parent="ODth3-OMwyShCsxj6PBK-15">
          <mxGeometry x="99.99999999999994" width="40" height="30" as="geometry" />
        </mxCell>
        <mxCell id="ODth3-OMwyShCsxj6PBK-16" value="" style="group" connectable="0" vertex="1" parent="WIyWlLk6GJQsqaUBKTNV-1">
          <mxGeometry x="-413" y="-1317" width="140" height="141" as="geometry" />
        </mxCell>
        <mxCell id="5TZPlUDZTr1wL6foJFkj-34" value="frequent_flyer_card" style="swimlane;fontStyle=0;childLayout=stackLayout;horizontal=1;startSize=26;fillColor=none;horizontalStack=0;resizeParent=1;resizeParentMax=0;resizeLast=0;collapsible=1;marginBottom=0;whiteSpace=wrap;html=1;" vertex="1" parent="ODth3-OMwyShCsxj6PBK-16">
          <mxGeometry width="140" height="110" as="geometry" />
        </mxCell>
        <mxCell id="5TZPlUDZTr1wL6foJFkj-35" value="&lt;div&gt;id&lt;/div&gt;&lt;div&gt;ffc_number&lt;/div&gt;&lt;div&gt;miles&lt;/div&gt;&lt;div&gt;meal_code&lt;/div&gt;" style="text;strokeColor=none;fillColor=none;align=left;verticalAlign=top;spacingLeft=4;spacingRight=4;overflow=hidden;rotatable=0;points=[[0,0.5],[1,0.5]];portConstraint=eastwest;whiteSpace=wrap;html=1;" vertex="1" parent="5TZPlUDZTr1wL6foJFkj-34">
          <mxGeometry y="26" width="140" height="84" as="geometry" />
        </mxCell>
        <mxCell id="f0bGjhomK1BL4XSHQhLc-7" value="0..1" style="text;html=1;align=center;verticalAlign=middle;resizable=0;points=[];autosize=1;strokeColor=none;fillColor=none;" vertex="1" parent="ODth3-OMwyShCsxj6PBK-16">
          <mxGeometry x="40" y="111" width="40" height="30" as="geometry" />
        </mxCell>
        <mxCell id="ODth3-OMwyShCsxj6PBK-17" value="" style="group" connectable="0" vertex="1" parent="WIyWlLk6GJQsqaUBKTNV-1">
          <mxGeometry x="-403" y="-1155" width="130" height="160" as="geometry" />
        </mxCell>
        <mxCell id="9AFrQC5tuZRdLCmCFJYH-1" value="customer" style="swimlane;fontStyle=0;childLayout=stackLayout;horizontal=1;startSize=26;fillColor=none;horizontalStack=0;resizeParent=1;resizeParentMax=0;resizeLast=0;collapsible=1;marginBottom=0;whiteSpace=wrap;html=1;" vertex="1" parent="ODth3-OMwyShCsxj6PBK-17">
          <mxGeometry y="30" width="130" height="100" as="geometry" />
        </mxCell>
        <mxCell id="9AFrQC5tuZRdLCmCFJYH-2" value="&lt;div&gt;id&lt;/div&gt;&lt;div&gt;dat_of_birth&lt;/div&gt;&lt;div&gt;name&lt;/div&gt;&lt;div&gt;&lt;br&gt;&lt;/div&gt;" style="text;strokeColor=none;fillColor=none;align=left;verticalAlign=top;spacingLeft=4;spacingRight=4;overflow=hidden;rotatable=0;points=[[0,0.5],[1,0.5]];portConstraint=eastwest;whiteSpace=wrap;html=1;" vertex="1" parent="9AFrQC5tuZRdLCmCFJYH-1">
          <mxGeometry y="26" width="130" height="74" as="geometry" />
        </mxCell>
        <mxCell id="f0bGjhomK1BL4XSHQhLc-8" value="1" style="text;html=1;align=center;verticalAlign=middle;resizable=0;points=[];autosize=1;strokeColor=none;fillColor=none;" vertex="1" parent="ODth3-OMwyShCsxj6PBK-17">
          <mxGeometry x="30" width="30" height="30" as="geometry" />
        </mxCell>
        <mxCell id="yZ9hM7ncI5iXYr6Q-MJC-23" value="1" style="text;html=1;align=center;verticalAlign=middle;resizable=1;points=[];autosize=1;strokeColor=none;fillColor=none;movable=1;rotatable=1;deletable=1;editable=1;locked=0;connectable=1;" vertex="1" parent="ODth3-OMwyShCsxj6PBK-17">
          <mxGeometry x="30" y="130" width="30" height="30" as="geometry" />
        </mxCell>
        <mxCell id="ODth3-OMwyShCsxj6PBK-23" value="" style="group" connectable="0" vertex="1" parent="WIyWlLk6GJQsqaUBKTNV-1">
          <mxGeometry x="-1160" y="-657" width="185" height="100" as="geometry" />
        </mxCell>
        <mxCell id="yZ9hM7ncI5iXYr6Q-MJC-36" value="cancellation" style="swimlane;fontStyle=0;childLayout=stackLayout;horizontal=1;startSize=26;fillColor=none;horizontalStack=0;resizeParent=1;resizeParentMax=0;resizeLast=0;collapsible=1;marginBottom=0;whiteSpace=wrap;html=1;" vertex="1" parent="ODth3-OMwyShCsxj6PBK-23">
          <mxGeometry width="140" height="100" as="geometry" />
        </mxCell>
        <mxCell id="yZ9hM7ncI5iXYr6Q-MJC-37" value="id_cancellation&lt;div&gt;date&lt;/div&gt;&lt;div&gt;time&lt;/div&gt;" style="text;strokeColor=none;fillColor=none;align=left;verticalAlign=top;spacingLeft=4;spacingRight=4;overflow=hidden;rotatable=0;points=[[0,0.5],[1,0.5]];portConstraint=eastwest;whiteSpace=wrap;html=1;" vertex="1" parent="yZ9hM7ncI5iXYr6Q-MJC-36">
          <mxGeometry y="26" width="140" height="74" as="geometry" />
        </mxCell>
        <mxCell id="yZ9hM7ncI5iXYr6Q-MJC-39" value="0..1" style="text;html=1;align=center;verticalAlign=middle;resizable=0;points=[];autosize=1;strokeColor=none;fillColor=none;" vertex="1" parent="ODth3-OMwyShCsxj6PBK-23">
          <mxGeometry x="145" y="14" width="40" height="30" as="geometry" />
        </mxCell>
        <mxCell id="ODth3-OMwyShCsxj6PBK-24" value="" style="group" connectable="0" vertex="1" parent="WIyWlLk6GJQsqaUBKTNV-1">
          <mxGeometry x="-1081.55" y="-420" width="165" height="100" as="geometry" />
        </mxCell>
        <mxCell id="5TZPlUDZTr1wL6foJFkj-36" value="class" style="swimlane;fontStyle=0;childLayout=stackLayout;horizontal=1;startSize=26;fillColor=none;horizontalStack=0;resizeParent=1;resizeParentMax=0;resizeLast=0;collapsible=1;marginBottom=0;whiteSpace=wrap;html=1;" vertex="1" parent="ODth3-OMwyShCsxj6PBK-24">
          <mxGeometry width="140" height="100" as="geometry" />
        </mxCell>
        <mxCell id="5TZPlUDZTr1wL6foJFkj-37" value="&lt;div&gt;id&lt;/div&gt;&lt;div&gt;name&lt;/div&gt;&lt;div&gt;&lt;br&gt;&lt;/div&gt;" style="text;strokeColor=none;fillColor=none;align=left;verticalAlign=top;spacingLeft=4;spacingRight=4;overflow=hidden;rotatable=0;points=[[0,0.5],[1,0.5]];portConstraint=eastwest;whiteSpace=wrap;html=1;" vertex="1" parent="5TZPlUDZTr1wL6foJFkj-36">
          <mxGeometry y="26" width="140" height="74" as="geometry" />
        </mxCell>
        <mxCell id="yZ9hM7ncI5iXYr6Q-MJC-26" value="1" style="text;html=1;align=center;verticalAlign=middle;resizable=0;points=[];autosize=1;strokeColor=none;fillColor=none;" vertex="1" parent="ODth3-OMwyShCsxj6PBK-24">
          <mxGeometry x="135" y="15" width="30" height="30" as="geometry" />
        </mxCell>
        <mxCell id="ODth3-OMwyShCsxj6PBK-26" value="" style="group" connectable="0" vertex="1" parent="WIyWlLk6GJQsqaUBKTNV-1">
          <mxGeometry x="-835" y="-260" width="140" height="122" as="geometry" />
        </mxCell>
        <mxCell id="5TZPlUDZTr1wL6foJFkj-16" value="pieces_of_luggage" style="swimlane;fontStyle=0;childLayout=stackLayout;horizontal=1;startSize=26;fillColor=none;horizontalStack=0;resizeParent=1;resizeParentMax=0;resizeLast=0;collapsible=1;marginBottom=0;whiteSpace=wrap;html=1;" vertex="1" parent="ODth3-OMwyShCsxj6PBK-26">
          <mxGeometry y="22" width="140" height="100" as="geometry" />
        </mxCell>
        <mxCell id="5TZPlUDZTr1wL6foJFkj-17" value="&lt;div&gt;id&lt;/div&gt;&lt;div&gt;number&lt;/div&gt;&lt;div&gt;weight&lt;/div&gt;" style="text;strokeColor=none;fillColor=none;align=left;verticalAlign=top;spacingLeft=4;spacingRight=4;overflow=hidden;rotatable=0;points=[[0,0.5],[1,0.5]];portConstraint=eastwest;whiteSpace=wrap;html=1;" vertex="1" parent="5TZPlUDZTr1wL6foJFkj-16">
          <mxGeometry y="26" width="140" height="74" as="geometry" />
        </mxCell>
        <mxCell id="f0bGjhomK1BL4XSHQhLc-17" value="*" style="text;html=1;align=center;verticalAlign=middle;resizable=0;points=[];autosize=1;strokeColor=none;fillColor=none;" vertex="1" parent="ODth3-OMwyShCsxj6PBK-26">
          <mxGeometry x="45" width="30" height="30" as="geometry" />
        </mxCell>
        <mxCell id="ODth3-OMwyShCsxj6PBK-29" value="" style="group" connectable="0" vertex="1" parent="WIyWlLk6GJQsqaUBKTNV-1">
          <mxGeometry x="15" y="-1480" width="170" height="130" as="geometry" />
        </mxCell>
        <mxCell id="5TZPlUDZTr1wL6foJFkj-42" value="country" style="swimlane;fontStyle=0;childLayout=stackLayout;horizontal=1;startSize=26;fillColor=none;horizontalStack=0;resizeParent=1;resizeParentMax=0;resizeLast=0;collapsible=1;marginBottom=0;whiteSpace=wrap;html=1;" vertex="1" parent="ODth3-OMwyShCsxj6PBK-29">
          <mxGeometry x="30" width="140" height="100" as="geometry" />
        </mxCell>
        <mxCell id="5TZPlUDZTr1wL6foJFkj-43" value="&lt;div&gt;id&lt;/div&gt;&lt;div&gt;name&lt;/div&gt;" style="text;strokeColor=none;fillColor=none;align=left;verticalAlign=top;spacingLeft=4;spacingRight=4;overflow=hidden;rotatable=0;points=[[0,0.5],[1,0.5]];portConstraint=eastwest;whiteSpace=wrap;html=1;" vertex="1" parent="5TZPlUDZTr1wL6foJFkj-42">
          <mxGeometry y="26" width="140" height="74" as="geometry" />
        </mxCell>
        <mxCell id="ODth3-OMwyShCsxj6PBK-3" value="1" style="text;html=1;align=center;verticalAlign=middle;resizable=0;points=[];autosize=1;strokeColor=none;fillColor=none;" vertex="1" parent="ODth3-OMwyShCsxj6PBK-29">
          <mxGeometry y="38" width="30" height="30" as="geometry" />
        </mxCell>
        <mxCell id="yZ9hM7ncI5iXYr6Q-MJC-30" value="1" style="text;html=1;align=center;verticalAlign=middle;resizable=0;points=[];autosize=1;strokeColor=none;fillColor=none;" vertex="1" parent="ODth3-OMwyShCsxj6PBK-29">
          <mxGeometry x="95" y="100" width="30" height="30" as="geometry" />
        </mxCell>
        <mxCell id="ODth3-OMwyShCsxj6PBK-30" value="" style="group" connectable="0" vertex="1" parent="WIyWlLk6GJQsqaUBKTNV-1">
          <mxGeometry x="40" y="-1340" width="140" height="158" as="geometry" />
        </mxCell>
        <mxCell id="5TZPlUDZTr1wL6foJFkj-30" value="city" style="swimlane;fontStyle=0;childLayout=stackLayout;horizontal=1;startSize=26;fillColor=none;horizontalStack=0;resizeParent=1;resizeParentMax=0;resizeLast=0;collapsible=1;marginBottom=0;whiteSpace=wrap;html=1;" vertex="1" parent="ODth3-OMwyShCsxj6PBK-30">
          <mxGeometry y="30" width="140" height="100" as="geometry" />
        </mxCell>
        <mxCell id="5TZPlUDZTr1wL6foJFkj-31" value="&lt;div&gt;id&lt;/div&gt;&lt;div&gt;name&lt;/div&gt;&lt;div&gt;id_country&lt;/div&gt;" style="text;strokeColor=none;fillColor=none;align=left;verticalAlign=top;spacingLeft=4;spacingRight=4;overflow=hidden;rotatable=0;points=[[0,0.5],[1,0.5]];portConstraint=eastwest;whiteSpace=wrap;html=1;" vertex="1" parent="5TZPlUDZTr1wL6foJFkj-30">
          <mxGeometry y="26" width="140" height="74" as="geometry" />
        </mxCell>
        <mxCell id="yZ9hM7ncI5iXYr6Q-MJC-28" value="1" style="text;html=1;align=center;verticalAlign=middle;resizable=0;points=[];autosize=1;strokeColor=none;fillColor=none;" vertex="1" parent="ODth3-OMwyShCsxj6PBK-30">
          <mxGeometry x="67" y="128" width="30" height="30" as="geometry" />
        </mxCell>
        <mxCell id="yZ9hM7ncI5iXYr6Q-MJC-31" value="*" style="text;html=1;align=center;verticalAlign=middle;resizable=0;points=[];autosize=1;strokeColor=none;fillColor=none;" vertex="1" parent="ODth3-OMwyShCsxj6PBK-30">
          <mxGeometry x="67" width="30" height="30" as="geometry" />
        </mxCell>
        <mxCell id="ODth3-OMwyShCsxj6PBK-32" value="" style="group" connectable="0" vertex="1" parent="WIyWlLk6GJQsqaUBKTNV-1">
          <mxGeometry x="5" y="-1166" width="175" height="154" as="geometry" />
        </mxCell>
        <mxCell id="5TZPlUDZTr1wL6foJFkj-28" value="airport" style="swimlane;fontStyle=0;childLayout=stackLayout;horizontal=1;startSize=26;fillColor=none;horizontalStack=0;resizeParent=1;resizeParentMax=0;resizeLast=0;collapsible=1;marginBottom=0;whiteSpace=wrap;html=1;" vertex="1" parent="ODth3-OMwyShCsxj6PBK-32">
          <mxGeometry x="35" y="26" width="140" height="100" as="geometry" />
        </mxCell>
        <mxCell id="5TZPlUDZTr1wL6foJFkj-29" value="&lt;div&gt;id&lt;/div&gt;&lt;div&gt;name&lt;/div&gt;&lt;div&gt;city&lt;/div&gt;" style="text;strokeColor=none;fillColor=none;align=left;verticalAlign=top;spacingLeft=4;spacingRight=4;overflow=hidden;rotatable=0;points=[[0,0.5],[1,0.5]];portConstraint=eastwest;whiteSpace=wrap;html=1;" vertex="1" parent="5TZPlUDZTr1wL6foJFkj-28">
          <mxGeometry y="26" width="140" height="74" as="geometry" />
        </mxCell>
        <mxCell id="yZ9hM7ncI5iXYr6Q-MJC-3" value="1" style="text;html=1;align=center;verticalAlign=middle;resizable=0;points=[];autosize=1;strokeColor=none;fillColor=none;" vertex="1" parent="ODth3-OMwyShCsxj6PBK-32">
          <mxGeometry x="40" y="124" width="30" height="30" as="geometry" />
        </mxCell>
        <mxCell id="yZ9hM7ncI5iXYr6Q-MJC-5" value="1" style="text;html=1;align=center;verticalAlign=middle;resizable=0;points=[];autosize=1;strokeColor=none;fillColor=none;" vertex="1" parent="ODth3-OMwyShCsxj6PBK-32">
          <mxGeometry x="130" y="124" width="30" height="30" as="geometry" />
        </mxCell>
        <mxCell id="yZ9hM7ncI5iXYr6Q-MJC-29" value="1..*" style="text;html=1;align=center;verticalAlign=middle;resizable=0;points=[];autosize=1;strokeColor=none;fillColor=none;" vertex="1" parent="ODth3-OMwyShCsxj6PBK-32">
          <mxGeometry x="100" width="40" height="30" as="geometry" />
        </mxCell>
        <mxCell id="ODth3-OMwyShCsxj6PBK-35" value="" style="group" connectable="0" vertex="1" parent="WIyWlLk6GJQsqaUBKTNV-1">
          <mxGeometry x="108" y="-1002" width="60" height="30" as="geometry" />
        </mxCell>
        <mxCell id="yZ9hM7ncI5iXYr6Q-MJC-8" value="GOAL" style="text;html=1;align=center;verticalAlign=middle;resizable=0;points=[];autosize=1;strokeColor=none;fillColor=none;" vertex="1" parent="ODth3-OMwyShCsxj6PBK-35">
          <mxGeometry width="60" height="30" as="geometry" />
        </mxCell>
        <mxCell id="ODth3-OMwyShCsxj6PBK-36" value="" style="group" connectable="0" vertex="1" parent="WIyWlLk6GJQsqaUBKTNV-1">
          <mxGeometry x="45" y="-1002" width="60" height="30" as="geometry" />
        </mxCell>
        <mxCell id="yZ9hM7ncI5iXYr6Q-MJC-7" value="START" style="text;html=1;align=center;verticalAlign=middle;resizable=0;points=[];autosize=1;strokeColor=none;fillColor=none;" vertex="1" parent="ODth3-OMwyShCsxj6PBK-36">
          <mxGeometry width="60" height="30" as="geometry" />
        </mxCell>
        <mxCell id="ODth3-OMwyShCsxj6PBK-38" value="" style="group" connectable="0" vertex="1" parent="WIyWlLk6GJQsqaUBKTNV-1">
          <mxGeometry x="39" y="-480" width="210" height="130" as="geometry" />
        </mxCell>
        <mxCell id="f0bGjhomK1BL4XSHQhLc-22" value="0..1" style="text;html=1;align=center;verticalAlign=middle;resizable=0;points=[];autosize=1;strokeColor=none;fillColor=none;" vertex="1" parent="ODth3-OMwyShCsxj6PBK-38">
          <mxGeometry y="100" width="40" height="30" as="geometry" />
        </mxCell>
        <mxCell id="yZ9hM7ncI5iXYr6Q-MJC-12" value="*" style="text;html=1;align=center;verticalAlign=middle;resizable=0;points=[];autosize=1;strokeColor=none;fillColor=none;" vertex="1" parent="ODth3-OMwyShCsxj6PBK-38">
          <mxGeometry x="83" width="30" height="30" as="geometry" />
        </mxCell>
        <mxCell id="5TZPlUDZTr1wL6foJFkj-18" value="availabloe_seat" style="swimlane;fontStyle=0;childLayout=stackLayout;horizontal=1;startSize=26;fillColor=none;horizontalStack=0;resizeParent=1;resizeParentMax=0;resizeLast=0;collapsible=1;marginBottom=0;whiteSpace=wrap;html=1;" vertex="1" parent="ODth3-OMwyShCsxj6PBK-38">
          <mxGeometry x="40" y="26" width="140" height="100" as="geometry" />
        </mxCell>
        <mxCell id="5TZPlUDZTr1wL6foJFkj-19" value="&lt;div&gt;id&lt;/div&gt;&lt;div&gt;&lt;br&gt;&lt;/div&gt;&lt;div&gt;&lt;br&gt;&lt;/div&gt;&lt;div&gt;&lt;br&gt;&lt;/div&gt;" style="text;strokeColor=none;fillColor=none;align=left;verticalAlign=top;spacingLeft=4;spacingRight=4;overflow=hidden;rotatable=0;points=[[0,0.5],[1,0.5]];portConstraint=eastwest;whiteSpace=wrap;html=1;" vertex="1" parent="5TZPlUDZTr1wL6foJFkj-18">
          <mxGeometry y="26" width="140" height="74" as="geometry" />
        </mxCell>
        <mxCell id="yZ9hM7ncI5iXYr6Q-MJC-13" value="*" style="text;html=1;align=center;verticalAlign=middle;resizable=0;points=[];autosize=1;strokeColor=none;fillColor=none;" vertex="1" parent="ODth3-OMwyShCsxj6PBK-38">
          <mxGeometry x="180" y="64" width="30" height="30" as="geometry" />
        </mxCell>
        <mxCell id="ODth3-OMwyShCsxj6PBK-42" value="" style="group" connectable="0" vertex="1" parent="WIyWlLk6GJQsqaUBKTNV-1">
          <mxGeometry x="315" y="-880" width="198" height="273" as="geometry" />
        </mxCell>
        <mxCell id="5TZPlUDZTr1wL6foJFkj-22" value="plane_model" style="swimlane;fontStyle=0;childLayout=stackLayout;horizontal=1;startSize=26;fillColor=none;horizontalStack=0;resizeParent=1;resizeParentMax=0;resizeLast=0;collapsible=1;marginBottom=0;whiteSpace=wrap;html=1;" vertex="1" parent="ODth3-OMwyShCsxj6PBK-42">
          <mxGeometry x="85" y="143" width="140" height="100" as="geometry" />
        </mxCell>
        <mxCell id="5TZPlUDZTr1wL6foJFkj-23" value="&lt;div&gt;id&lt;/div&gt;&lt;div&gt;description&lt;/div&gt;&lt;div&gt;graphic&lt;/div&gt;" style="text;strokeColor=none;fillColor=none;align=left;verticalAlign=top;spacingLeft=4;spacingRight=4;overflow=hidden;rotatable=0;points=[[0,0.5],[1,0.5]];portConstraint=eastwest;whiteSpace=wrap;html=1;" vertex="1" parent="5TZPlUDZTr1wL6foJFkj-22">
          <mxGeometry y="26" width="140" height="74" as="geometry" />
        </mxCell>
        <mxCell id="ilzKF72MAawPVHj94fBm-19" value="1" style="text;html=1;align=center;verticalAlign=middle;resizable=0;points=[];autosize=1;strokeColor=none;fillColor=none;" vertex="1" parent="ODth3-OMwyShCsxj6PBK-42">
          <mxGeometry x="110" y="120" width="30" height="30" as="geometry" />
        </mxCell>
        <mxCell id="yZ9hM7ncI5iXYr6Q-MJC-15" value="1" style="text;html=1;align=center;verticalAlign=middle;resizable=0;points=[];autosize=1;strokeColor=none;fillColor=none;" vertex="1" parent="ODth3-OMwyShCsxj6PBK-42">
          <mxGeometry x="110" y="243" width="30" height="30" as="geometry" />
        </mxCell>
        <mxCell id="ilzKF72MAawPVHj94fBm-3" value="1" style="text;html=1;align=center;verticalAlign=middle;resizable=0;points=[];autosize=1;strokeColor=none;fillColor=none;" vertex="1" parent="ODth3-OMwyShCsxj6PBK-42">
          <mxGeometry width="30" height="30" as="geometry" />
        </mxCell>
        <mxCell id="ODth3-OMwyShCsxj6PBK-43" value="" style="group" connectable="0" vertex="1" parent="WIyWlLk6GJQsqaUBKTNV-1">
          <mxGeometry x="40" y="-962" width="170" height="222" as="geometry" />
        </mxCell>
        <mxCell id="ODth3-OMwyShCsxj6PBK-34" value="" style="group" connectable="0" vertex="1" parent="ODth3-OMwyShCsxj6PBK-43">
          <mxGeometry width="160" height="222" as="geometry" />
        </mxCell>
        <mxCell id="5TZPlUDZTr1wL6foJFkj-32" value="flight_number" style="swimlane;fontStyle=0;childLayout=stackLayout;horizontal=1;startSize=26;fillColor=none;horizontalStack=0;resizeParent=1;resizeParentMax=0;resizeLast=0;collapsible=1;marginBottom=0;whiteSpace=wrap;html=1;" vertex="1" parent="ODth3-OMwyShCsxj6PBK-34">
          <mxGeometry y="27" width="140" height="160" as="geometry" />
        </mxCell>
        <mxCell id="5TZPlUDZTr1wL6foJFkj-33" value="&lt;div&gt;id&lt;/div&gt;&lt;div&gt;departure_time&lt;/div&gt;&lt;div&gt;description&lt;/div&gt;&lt;div&gt;type&lt;/div&gt;&lt;div&gt;airline&lt;/div&gt;" style="text;strokeColor=none;fillColor=none;align=left;verticalAlign=top;spacingLeft=4;spacingRight=4;overflow=hidden;rotatable=0;points=[[0,0.5],[1,0.5]];portConstraint=eastwest;whiteSpace=wrap;html=1;" vertex="1" parent="5TZPlUDZTr1wL6foJFkj-32">
          <mxGeometry y="26" width="140" height="134" as="geometry" />
        </mxCell>
        <mxCell id="yZ9hM7ncI5iXYr6Q-MJC-4" value="1..*" style="text;html=1;align=center;verticalAlign=middle;resizable=0;points=[];autosize=1;strokeColor=none;fillColor=none;" vertex="1" parent="ODth3-OMwyShCsxj6PBK-34">
          <mxGeometry width="40" height="30" as="geometry" />
        </mxCell>
        <mxCell id="yZ9hM7ncI5iXYr6Q-MJC-6" value="1..*" style="text;html=1;align=center;verticalAlign=middle;resizable=0;points=[];autosize=1;strokeColor=none;fillColor=none;" vertex="1" parent="ODth3-OMwyShCsxj6PBK-34">
          <mxGeometry x="90" width="40" height="30" as="geometry" />
        </mxCell>
        <mxCell id="yZ9hM7ncI5iXYr6Q-MJC-9" value="1" style="text;html=1;align=center;verticalAlign=middle;resizable=0;points=[];autosize=1;strokeColor=none;fillColor=none;" vertex="1" parent="ODth3-OMwyShCsxj6PBK-34">
          <mxGeometry x="47" y="182" width="30" height="30" as="geometry" />
        </mxCell>
        <mxCell id="iLmHEP5_-U6pqt9_wlRn-9" value="&lt;span style=&quot;color: rgb(0, 0, 0); font-family: Helvetica; font-size: 12px; font-style: normal; font-variant-ligatures: normal; font-variant-caps: normal; font-weight: 400; letter-spacing: normal; orphans: 2; text-align: center; text-indent: 0px; text-transform: none; widows: 2; word-spacing: 0px; -webkit-text-stroke-width: 0px; white-space: nowrap; background-color: rgb(251, 251, 251); text-decoration-thickness: initial; text-decoration-style: initial; text-decoration-color: initial; display: inline !important; float: none;&quot;&gt;1..*&lt;/span&gt;" style="text;whiteSpace=wrap;html=1;" vertex="1" parent="ODth3-OMwyShCsxj6PBK-34">
          <mxGeometry x="110" y="182" width="50" height="40" as="geometry" />
        </mxCell>
        <mxCell id="9AFrQC5tuZRdLCmCFJYH-4" value="" style="endArrow=none;html=1;rounded=0;entryX=0.16;entryY=0.2;entryDx=0;entryDy=0;entryPerimeter=0;exitX=0.707;exitY=0.031;exitDx=0;exitDy=0;exitPerimeter=0;" edge="1" parent="WIyWlLk6GJQsqaUBKTNV-1" source="5TZPlUDZTr1wL6foJFkj-32" target="yZ9hM7ncI5iXYr6Q-MJC-5">
          <mxGeometry width="50" height="50" relative="1" as="geometry">
            <mxPoint x="390" y="-840" as="sourcePoint" />
            <mxPoint x="440" y="-890" as="targetPoint" />
          </mxGeometry>
        </mxCell>
        <mxCell id="9AFrQC5tuZRdLCmCFJYH-10" value="" style="endArrow=none;html=1;rounded=0;entryX=0.286;entryY=1.014;entryDx=0;entryDy=0;entryPerimeter=0;exitX=0.25;exitY=0;exitDx=0;exitDy=0;" edge="1" parent="WIyWlLk6GJQsqaUBKTNV-1" source="5TZPlUDZTr1wL6foJFkj-32" target="5TZPlUDZTr1wL6foJFkj-29">
          <mxGeometry width="50" height="50" relative="1" as="geometry">
            <mxPoint x="390" y="-840" as="sourcePoint" />
            <mxPoint x="440" y="-890" as="targetPoint" />
          </mxGeometry>
        </mxCell>
        <mxCell id="ODth3-OMwyShCsxj6PBK-45" value="   " style="group" connectable="0" vertex="1" parent="WIyWlLk6GJQsqaUBKTNV-1">
          <mxGeometry x="640" y="-693.75" width="175" height="135" as="geometry" />
        </mxCell>
        <mxCell id="ilzKF72MAawPVHj94fBm-9" value="airline" style="swimlane;fontStyle=0;childLayout=stackLayout;horizontal=1;startSize=26;fillColor=none;horizontalStack=0;resizeParent=1;resizeParentMax=0;resizeLast=0;collapsible=1;marginBottom=0;whiteSpace=wrap;html=1;" vertex="1" parent="ODth3-OMwyShCsxj6PBK-45">
          <mxGeometry x="35" y="25" width="140" height="110" as="geometry" />
        </mxCell>
        <mxCell id="ilzKF72MAawPVHj94fBm-10" value="&lt;div&gt;id&lt;/div&gt;&lt;div&gt;name&lt;/div&gt;&lt;div&gt;code&lt;/div&gt;&lt;div&gt;&lt;br&gt;&lt;/div&gt;" style="text;strokeColor=none;fillColor=none;align=left;verticalAlign=top;spacingLeft=4;spacingRight=4;overflow=hidden;rotatable=0;points=[[0,0.5],[1,0.5]];portConstraint=eastwest;whiteSpace=wrap;html=1;" vertex="1" parent="ilzKF72MAawPVHj94fBm-9">
          <mxGeometry y="26" width="140" height="84" as="geometry" />
        </mxCell>
        <mxCell id="ilzKF72MAawPVHj94fBm-20" value="1" style="text;html=1;align=center;verticalAlign=middle;resizable=0;points=[];autosize=1;strokeColor=none;fillColor=none;" vertex="1" parent="ODth3-OMwyShCsxj6PBK-45">
          <mxGeometry x="90" width="30" height="30" as="geometry" />
        </mxCell>
        <mxCell id="ilzKF72MAawPVHj94fBm-23" value="1" style="text;html=1;align=center;verticalAlign=middle;resizable=0;points=[];autosize=1;strokeColor=none;fillColor=none;" vertex="1" parent="ODth3-OMwyShCsxj6PBK-45">
          <mxGeometry y="65" width="30" height="30" as="geometry" />
        </mxCell>
        <mxCell id="ODth3-OMwyShCsxj6PBK-53" value="" style="group" connectable="0" vertex="1" parent="WIyWlLk6GJQsqaUBKTNV-1">
          <mxGeometry x="-1160" y="-806" width="180" height="100" as="geometry" />
        </mxCell>
        <mxCell id="l8CWRU_g2g9f7LgcgFSw-5" value="checkin" style="swimlane;fontStyle=0;childLayout=stackLayout;horizontal=1;startSize=26;fillColor=none;horizontalStack=0;resizeParent=1;resizeParentMax=0;resizeLast=0;collapsible=1;marginBottom=0;whiteSpace=wrap;html=1;" vertex="1" parent="ODth3-OMwyShCsxj6PBK-53">
          <mxGeometry width="140" height="100" as="geometry" />
        </mxCell>
        <mxCell id="l8CWRU_g2g9f7LgcgFSw-6" value="id_checkin&lt;div&gt;date&lt;/div&gt;&lt;div&gt;time&lt;/div&gt;" style="text;strokeColor=none;fillColor=none;align=left;verticalAlign=top;spacingLeft=4;spacingRight=4;overflow=hidden;rotatable=0;points=[[0,0.5],[1,0.5]];portConstraint=eastwest;whiteSpace=wrap;html=1;" vertex="1" parent="l8CWRU_g2g9f7LgcgFSw-5">
          <mxGeometry y="26" width="140" height="74" as="geometry" />
        </mxCell>
        <mxCell id="l8CWRU_g2g9f7LgcgFSw-8" value="0..1" style="text;html=1;align=center;verticalAlign=middle;resizable=0;points=[];autosize=1;strokeColor=none;fillColor=none;" vertex="1" parent="ODth3-OMwyShCsxj6PBK-53">
          <mxGeometry x="140" y="35" width="40" height="30" as="geometry" />
        </mxCell>
        <mxCell id="19uUhVXneEvSgWzmzvUd-8" value="id&lt;div&gt;amount&lt;/div&gt;&lt;div&gt;date&lt;/div&gt;" style="text;strokeColor=none;fillColor=none;align=left;verticalAlign=top;spacingLeft=4;spacingRight=4;overflow=hidden;rotatable=0;points=[[0,0.5],[1,0.5]];portConstraint=eastwest;whiteSpace=wrap;html=1;" vertex="1" parent="WIyWlLk6GJQsqaUBKTNV-1">
          <mxGeometry x="-640" y="-991.5" width="140" height="74" as="geometry" />
        </mxCell>
        <mxCell id="dE8tSGFAzAWNITB8WUSD-4" value="" style="group" connectable="0" vertex="1" parent="WIyWlLk6GJQsqaUBKTNV-1">
          <mxGeometry x="-640" y="-1047.5" width="160" height="130" as="geometry" />
        </mxCell>
        <mxCell id="19uUhVXneEvSgWzmzvUd-7" value="payment" style="swimlane;fontStyle=0;childLayout=stackLayout;horizontal=1;startSize=26;fillColor=none;horizontalStack=0;resizeParent=1;resizeParentMax=0;resizeLast=0;collapsible=1;marginBottom=0;whiteSpace=wrap;html=1;container=0;" vertex="1" parent="dE8tSGFAzAWNITB8WUSD-4">
          <mxGeometry y="30" width="140" height="100" as="geometry" />
        </mxCell>
        <mxCell id="ilzKF72MAawPVHj94fBm-29" value="1..*" style="text;html=1;align=center;verticalAlign=middle;resizable=0;points=[];autosize=1;strokeColor=none;fillColor=none;container=0;" vertex="1" parent="dE8tSGFAzAWNITB8WUSD-4">
          <mxGeometry x="30" width="40" height="30" as="geometry" />
        </mxCell>
        <mxCell id="dE8tSGFAzAWNITB8WUSD-5" value="" style="endArrow=none;html=1;rounded=0;entryX=0.501;entryY=1.003;entryDx=0;entryDy=0;entryPerimeter=0;" edge="1" parent="WIyWlLk6GJQsqaUBKTNV-1" source="19uUhVXneEvSgWzmzvUd-7" target="19uUhVXneEvSgWzmzvUd-11">
          <mxGeometry width="50" height="50" relative="1" as="geometry">
            <mxPoint x="-540" y="-1071.5" as="sourcePoint" />
            <mxPoint x="-490" y="-1121.5" as="targetPoint" />
          </mxGeometry>
        </mxCell>
        <mxCell id="dE8tSGFAzAWNITB8WUSD-6" value="" style="group" connectable="0" vertex="1" parent="WIyWlLk6GJQsqaUBKTNV-1">
          <mxGeometry x="-640" y="-1236.5" width="140" height="130" as="geometry" />
        </mxCell>
        <mxCell id="19uUhVXneEvSgWzmzvUd-10" value="payment_method" style="swimlane;fontStyle=0;childLayout=stackLayout;horizontal=1;startSize=26;fillColor=none;horizontalStack=0;resizeParent=1;resizeParentMax=0;resizeLast=0;collapsible=1;marginBottom=0;whiteSpace=wrap;html=1;" vertex="1" parent="dE8tSGFAzAWNITB8WUSD-6">
          <mxGeometry width="140" height="100" as="geometry" />
        </mxCell>
        <mxCell id="19uUhVXneEvSgWzmzvUd-11" value="id&lt;div&gt;number_card&lt;/div&gt;&lt;div&gt;type&lt;/div&gt;" style="text;strokeColor=none;fillColor=none;align=left;verticalAlign=top;spacingLeft=4;spacingRight=4;overflow=hidden;rotatable=0;points=[[0,0.5],[1,0.5]];portConstraint=eastwest;whiteSpace=wrap;html=1;" vertex="1" parent="19uUhVXneEvSgWzmzvUd-10">
          <mxGeometry y="26" width="140" height="74" as="geometry" />
        </mxCell>
        <mxCell id="ilzKF72MAawPVHj94fBm-28" value="1" style="text;html=1;align=center;verticalAlign=middle;resizable=0;points=[];autosize=1;strokeColor=none;fillColor=none;" vertex="1" parent="dE8tSGFAzAWNITB8WUSD-6">
          <mxGeometry x="30" y="100" width="30" height="30" as="geometry" />
        </mxCell>
        <mxCell id="dE8tSGFAzAWNITB8WUSD-8" value="" style="endArrow=none;html=1;rounded=0;entryX=0.495;entryY=1.035;entryDx=0;entryDy=0;entryPerimeter=0;" edge="1" parent="WIyWlLk6GJQsqaUBKTNV-1" source="5TZPlUDZTr1wL6foJFkj-12" target="5TZPlUDZTr1wL6foJFkj-51">
          <mxGeometry width="50" height="50" relative="1" as="geometry">
            <mxPoint x="-1050" y="-780" as="sourcePoint" />
            <mxPoint x="-760" y="-1060" as="targetPoint" />
          </mxGeometry>
        </mxCell>
        <mxCell id="dE8tSGFAzAWNITB8WUSD-9" value="" style="group" connectable="0" vertex="1" parent="WIyWlLk6GJQsqaUBKTNV-1">
          <mxGeometry x="-860" y="-772" width="210" height="160" as="geometry" />
        </mxCell>
        <mxCell id="5TZPlUDZTr1wL6foJFkj-12" value="ticket" style="swimlane;fontStyle=0;childLayout=stackLayout;horizontal=1;startSize=26;fillColor=none;horizontalStack=0;resizeParent=1;resizeParentMax=0;resizeLast=0;collapsible=1;marginBottom=0;whiteSpace=wrap;html=1;" vertex="1" parent="dE8tSGFAzAWNITB8WUSD-9">
          <mxGeometry x="30" y="30" width="140" height="100" as="geometry" />
        </mxCell>
        <mxCell id="5TZPlUDZTr1wL6foJFkj-13" value="&lt;div&gt;id&lt;/div&gt;&lt;div&gt;ticketing_code&lt;/div&gt;&lt;div&gt;number&lt;/div&gt;&lt;div&gt;&lt;br&gt;&lt;/div&gt;" style="text;strokeColor=none;fillColor=none;align=left;verticalAlign=top;spacingLeft=4;spacingRight=4;overflow=hidden;rotatable=0;points=[[0,0.5],[1,0.5]];portConstraint=eastwest;whiteSpace=wrap;html=1;" vertex="1" parent="5TZPlUDZTr1wL6foJFkj-12">
          <mxGeometry y="26" width="140" height="74" as="geometry" />
        </mxCell>
        <mxCell id="yZ9hM7ncI5iXYr6Q-MJC-35" value="1..*" style="text;html=1;align=center;verticalAlign=middle;resizable=0;points=[];autosize=1;strokeColor=none;fillColor=none;" vertex="1" parent="dE8tSGFAzAWNITB8WUSD-9">
          <mxGeometry x="95.00000000000004" width="40" height="30" as="geometry" />
        </mxCell>
        <mxCell id="yZ9hM7ncI5iXYr6Q-MJC-40" value="1" style="text;html=1;align=center;verticalAlign=middle;resizable=0;points=[];autosize=1;strokeColor=none;fillColor=none;" vertex="1" parent="dE8tSGFAzAWNITB8WUSD-9">
          <mxGeometry x="5" y="50" width="30" height="30" as="geometry" />
        </mxCell>
        <mxCell id="l8CWRU_g2g9f7LgcgFSw-9" value="1" style="text;html=1;align=center;verticalAlign=middle;resizable=0;points=[];autosize=1;strokeColor=none;fillColor=none;" vertex="1" parent="dE8tSGFAzAWNITB8WUSD-9">
          <mxGeometry y="102" width="30" height="30" as="geometry" />
        </mxCell>
        <mxCell id="ODth3-OMwyShCsxj6PBK-21" value="1" style="text;html=1;align=center;verticalAlign=middle;resizable=0;points=[];autosize=1;strokeColor=none;fillColor=none;" vertex="1" parent="dE8tSGFAzAWNITB8WUSD-9">
          <mxGeometry x="105" y="130" width="30" height="30" as="geometry" />
        </mxCell>
        <mxCell id="xT6Af0WPOR4oWVvRTbGl-1" value="1..*" style="text;html=1;align=center;verticalAlign=middle;resizable=0;points=[];autosize=1;strokeColor=none;fillColor=none;" vertex="1" parent="dE8tSGFAzAWNITB8WUSD-9">
          <mxGeometry x="170" y="92" width="40" height="30" as="geometry" />
        </mxCell>
        <mxCell id="ODth3-OMwyShCsxj6PBK-1" value="1..*" style="text;html=1;align=center;verticalAlign=middle;resizable=0;points=[];autosize=1;strokeColor=none;fillColor=none;" vertex="1" parent="dE8tSGFAzAWNITB8WUSD-9">
          <mxGeometry x="170" y="20" width="40" height="30" as="geometry" />
        </mxCell>
        <mxCell id="dE8tSGFAzAWNITB8WUSD-10" value="" style="endArrow=none;html=1;rounded=0;" edge="1" parent="WIyWlLk6GJQsqaUBKTNV-1">
          <mxGeometry width="50" height="50" relative="1" as="geometry">
            <mxPoint x="-87" y="-600" as="sourcePoint" />
            <mxPoint x="40" y="-600" as="targetPoint" />
          </mxGeometry>
        </mxCell>
        <mxCell id="dE8tSGFAzAWNITB8WUSD-11" value="" style="group" connectable="0" vertex="1" parent="WIyWlLk6GJQsqaUBKTNV-1">
          <mxGeometry x="-362" y="-923" width="314.5" height="193" as="geometry" />
        </mxCell>
        <mxCell id="5TZPlUDZTr1wL6foJFkj-10" value="reservation" style="swimlane;fontStyle=0;childLayout=stackLayout;horizontal=1;startSize=26;fillColor=none;horizontalStack=0;resizeParent=1;resizeParentMax=0;resizeLast=0;collapsible=1;marginBottom=0;whiteSpace=wrap;html=1;" vertex="1" parent="dE8tSGFAzAWNITB8WUSD-11">
          <mxGeometry x="-93" y="42.5" width="140" height="100" as="geometry" />
        </mxCell>
        <mxCell id="5TZPlUDZTr1wL6foJFkj-11" value="&lt;div&gt;id&lt;/div&gt;&lt;div&gt;reservation_code&lt;/div&gt;&lt;div&gt;reservation_date&lt;/div&gt;&lt;div&gt;&lt;br&gt;&lt;/div&gt;" style="text;strokeColor=none;fillColor=none;align=left;verticalAlign=top;spacingLeft=4;spacingRight=4;overflow=hidden;rotatable=0;points=[[0,0.5],[1,0.5]];portConstraint=eastwest;whiteSpace=wrap;html=1;" vertex="1" parent="5TZPlUDZTr1wL6foJFkj-10">
          <mxGeometry y="26" width="140" height="74" as="geometry" />
        </mxCell>
        <mxCell id="ODth3-OMwyShCsxj6PBK-6" value="1..*" style="text;html=1;align=center;verticalAlign=middle;resizable=0;points=[];autosize=1;strokeColor=none;fillColor=none;" vertex="1" parent="dE8tSGFAzAWNITB8WUSD-11">
          <mxGeometry x="-58" y="4.5" width="40" height="30" as="geometry" />
        </mxCell>
        <mxCell id="5TZPlUDZTr1wL6foJFkj-40" value="flight_crew" style="swimlane;fontStyle=0;childLayout=stackLayout;horizontal=1;startSize=26;fillColor=none;horizontalStack=0;resizeParent=1;resizeParentMax=0;resizeLast=0;collapsible=1;marginBottom=0;whiteSpace=wrap;html=1;" vertex="1" parent="dE8tSGFAzAWNITB8WUSD-11">
          <mxGeometry x="142" y="93" width="140" height="100" as="geometry" />
        </mxCell>
        <mxCell id="5TZPlUDZTr1wL6foJFkj-41" value="&lt;div&gt;id&lt;/div&gt;&lt;div&gt;name&lt;/div&gt;&lt;div&gt;experience_years&lt;br&gt;&lt;/div&gt;&lt;div&gt;role&lt;/div&gt;" style="text;strokeColor=none;fillColor=none;align=left;verticalAlign=top;spacingLeft=4;spacingRight=4;overflow=hidden;rotatable=0;points=[[0,0.5],[1,0.5]];portConstraint=eastwest;whiteSpace=wrap;html=1;" vertex="1" parent="5TZPlUDZTr1wL6foJFkj-40">
          <mxGeometry y="26" width="140" height="74" as="geometry" />
        </mxCell>
        <mxCell id="ODth3-OMwyShCsxj6PBK-39" value="person" style="swimlane;fontStyle=0;childLayout=stackLayout;horizontal=1;startSize=26;fillColor=none;horizontalStack=0;resizeParent=1;resizeParentMax=0;resizeLast=0;collapsible=1;marginBottom=0;whiteSpace=wrap;html=1;" vertex="1" parent="dE8tSGFAzAWNITB8WUSD-11">
          <mxGeometry x="134.5" y="-64" width="140" height="80" as="geometry" />
        </mxCell>
        <mxCell id="ODth3-OMwyShCsxj6PBK-40" value="&lt;div&gt;first_name&lt;br&gt;&lt;/div&gt;&lt;div&gt;last_name&lt;br&gt;&lt;/div&gt;sexo" style="text;strokeColor=none;fillColor=none;align=left;verticalAlign=top;spacingLeft=4;spacingRight=4;overflow=hidden;rotatable=0;points=[[0,0.5],[1,0.5]];portConstraint=eastwest;whiteSpace=wrap;html=1;" vertex="1" parent="ODth3-OMwyShCsxj6PBK-39">
          <mxGeometry y="26" width="140" height="54" as="geometry" />
        </mxCell>
        <mxCell id="iLmHEP5_-U6pqt9_wlRn-7" value="" style="endArrow=block;endSize=16;endFill=0;html=1;rounded=0;entryX=0.539;entryY=1.056;entryDx=0;entryDy=0;entryPerimeter=0;exitX=0.5;exitY=0;exitDx=0;exitDy=0;" edge="1" parent="dE8tSGFAzAWNITB8WUSD-11" source="5TZPlUDZTr1wL6foJFkj-40" target="ODth3-OMwyShCsxj6PBK-40">
          <mxGeometry width="160" relative="1" as="geometry">
            <mxPoint x="-208" y="-57" as="sourcePoint" />
            <mxPoint x="-48" y="-57" as="targetPoint" />
          </mxGeometry>
        </mxCell>
        <mxCell id="dE8tSGFAzAWNITB8WUSD-12" value="" style="group" connectable="0" vertex="1" parent="WIyWlLk6GJQsqaUBKTNV-1">
          <mxGeometry x="-860" y="-480" width="205" height="195" as="geometry" />
        </mxCell>
        <mxCell id="f0bGjhomK1BL4XSHQhLc-16" value="1" style="text;html=1;align=center;verticalAlign=middle;resizable=0;points=[];autosize=1;strokeColor=none;fillColor=none;" vertex="1" parent="dE8tSGFAzAWNITB8WUSD-12">
          <mxGeometry x="71" y="165" width="30" height="30" as="geometry" />
        </mxCell>
        <mxCell id="ODth3-OMwyShCsxj6PBK-25" value="" style="group" connectable="0" vertex="1" parent="dE8tSGFAzAWNITB8WUSD-12">
          <mxGeometry width="205" height="170" as="geometry" />
        </mxCell>
        <mxCell id="5TZPlUDZTr1wL6foJFkj-14" value="coupon" style="swimlane;fontStyle=0;childLayout=stackLayout;horizontal=1;startSize=26;fillColor=none;horizontalStack=0;resizeParent=1;resizeParentMax=0;resizeLast=0;collapsible=1;marginBottom=0;whiteSpace=wrap;html=1;" vertex="1" parent="ODth3-OMwyShCsxj6PBK-25">
          <mxGeometry x="30" y="30" width="140" height="140" as="geometry" />
        </mxCell>
        <mxCell id="5TZPlUDZTr1wL6foJFkj-15" value="&lt;div&gt;id&lt;/div&gt;&lt;div&gt;id_ticket&lt;/div&gt;&lt;div&gt;date_of redemption&lt;/div&gt;&lt;div&gt;stand_by&lt;/div&gt;&lt;div&gt;meal_code&lt;/div&gt;&lt;div&gt;&lt;br&gt;&lt;/div&gt;" style="text;strokeColor=none;fillColor=none;align=left;verticalAlign=top;spacingLeft=4;spacingRight=4;overflow=hidden;rotatable=0;points=[[0,0.5],[1,0.5]];portConstraint=eastwest;whiteSpace=wrap;html=1;" vertex="1" parent="5TZPlUDZTr1wL6foJFkj-14">
          <mxGeometry y="26" width="140" height="114" as="geometry" />
        </mxCell>
        <mxCell id="f0bGjhomK1BL4XSHQhLc-21" value="0..1" style="text;html=1;align=center;verticalAlign=middle;resizable=0;points=[];autosize=1;strokeColor=none;fillColor=none;" vertex="1" parent="ODth3-OMwyShCsxj6PBK-25">
          <mxGeometry x="165" y="96" width="40" height="30" as="geometry" />
        </mxCell>
        <mxCell id="f0bGjhomK1BL4XSHQhLc-14" value="1..4" style="text;html=1;align=center;verticalAlign=middle;resizable=0;points=[];autosize=1;strokeColor=none;fillColor=none;" vertex="1" parent="ODth3-OMwyShCsxj6PBK-25">
          <mxGeometry x="55" width="40" height="30" as="geometry" />
        </mxCell>
        <mxCell id="yZ9hM7ncI5iXYr6Q-MJC-27" value="1..*" style="text;html=1;align=center;verticalAlign=middle;resizable=0;points=[];autosize=1;strokeColor=none;fillColor=none;" vertex="1" parent="ODth3-OMwyShCsxj6PBK-25">
          <mxGeometry y="74" width="40" height="30" as="geometry" />
        </mxCell>
        <mxCell id="yZ9hM7ncI5iXYr6Q-MJC-1" value="*" style="text;html=1;align=center;verticalAlign=middle;resizable=0;points=[];autosize=1;strokeColor=none;fillColor=none;" vertex="1" parent="ODth3-OMwyShCsxj6PBK-25">
          <mxGeometry x="165" y="44" width="30" height="30" as="geometry" />
        </mxCell>
        <mxCell id="dE8tSGFAzAWNITB8WUSD-15" value="" style="group" connectable="0" vertex="1" parent="WIyWlLk6GJQsqaUBKTNV-1">
          <mxGeometry x="578" y="-925.5" width="140" height="157" as="geometry" />
        </mxCell>
        <mxCell id="ilzKF72MAawPVHj94fBm-15" value="period" style="swimlane;fontStyle=0;childLayout=stackLayout;horizontal=1;startSize=26;fillColor=none;horizontalStack=0;resizeParent=1;resizeParentMax=0;resizeLast=0;collapsible=1;marginBottom=0;whiteSpace=wrap;html=1;" vertex="1" parent="dE8tSGFAzAWNITB8WUSD-15">
          <mxGeometry x="80" y="28.25" width="140" height="100" as="geometry" />
        </mxCell>
        <mxCell id="ilzKF72MAawPVHj94fBm-16" value="&lt;div&gt;id&lt;/div&gt;&lt;div&gt;being_of_operation&lt;/div&gt;&lt;div&gt;end_of_operation&lt;/div&gt;&lt;div&gt;status&lt;/div&gt;" style="text;strokeColor=none;fillColor=none;align=left;verticalAlign=top;spacingLeft=4;spacingRight=4;overflow=hidden;rotatable=0;points=[[0,0.5],[1,0.5]];portConstraint=eastwest;whiteSpace=wrap;html=1;" vertex="1" parent="ilzKF72MAawPVHj94fBm-15">
          <mxGeometry y="26" width="140" height="74" as="geometry" />
        </mxCell>
        <mxCell id="ilzKF72MAawPVHj94fBm-21" value="*" style="text;html=1;align=center;verticalAlign=middle;resizable=0;points=[];autosize=1;strokeColor=none;fillColor=none;" vertex="1" parent="dE8tSGFAzAWNITB8WUSD-15">
          <mxGeometry x="150" y="125.25" width="30" height="30" as="geometry" />
        </mxCell>
        <mxCell id="ilzKF72MAawPVHj94fBm-22" value="*" style="text;html=1;align=center;verticalAlign=middle;resizable=0;points=[];autosize=1;strokeColor=none;fillColor=none;" vertex="1" parent="dE8tSGFAzAWNITB8WUSD-15">
          <mxGeometry x="55" y="45.5" width="30" height="30" as="geometry" />
        </mxCell>
        <mxCell id="dE8tSGFAzAWNITB8WUSD-24" value="" style="group" connectable="0" vertex="1" parent="WIyWlLk6GJQsqaUBKTNV-1">
          <mxGeometry y="-745" width="215" height="191" as="geometry" />
        </mxCell>
        <mxCell id="dE8tSGFAzAWNITB8WUSD-13" value="" style="group" connectable="0" vertex="1" parent="dE8tSGFAzAWNITB8WUSD-24">
          <mxGeometry width="210" height="191" as="geometry" />
        </mxCell>
        <mxCell id="5TZPlUDZTr1wL6foJFkj-48" value="flight" style="swimlane;fontStyle=0;childLayout=stackLayout;horizontal=1;startSize=26;fillColor=none;horizontalStack=0;resizeParent=1;resizeParentMax=0;resizeLast=0;collapsible=1;marginBottom=0;whiteSpace=wrap;html=1;" vertex="1" parent="dE8tSGFAzAWNITB8WUSD-13">
          <mxGeometry x="40" y="31" width="140" height="130" as="geometry" />
        </mxCell>
        <mxCell id="5TZPlUDZTr1wL6foJFkj-49" value="&lt;div&gt;id&lt;/div&gt;&lt;div&gt;boarding_time&lt;/div&gt;&lt;div&gt;flight_date&lt;/div&gt;&lt;div&gt;gate&lt;/div&gt;&lt;div&gt;check_in_counter&lt;/div&gt;&lt;div&gt;&lt;br&gt;&lt;/div&gt;" style="text;strokeColor=none;fillColor=none;align=left;verticalAlign=top;spacingLeft=4;spacingRight=4;overflow=hidden;rotatable=0;points=[[0,0.5],[1,0.5]];portConstraint=eastwest;whiteSpace=wrap;html=1;" vertex="1" parent="5TZPlUDZTr1wL6foJFkj-48">
          <mxGeometry y="26" width="140" height="104" as="geometry" />
        </mxCell>
        <mxCell id="yZ9hM7ncI5iXYr6Q-MJC-2" value="1" style="text;html=1;align=center;verticalAlign=middle;resizable=0;points=[];autosize=1;strokeColor=none;fillColor=none;" vertex="1" parent="dE8tSGFAzAWNITB8WUSD-13">
          <mxGeometry x="55" y="161" width="30" height="30" as="geometry" />
        </mxCell>
        <mxCell id="yZ9hM7ncI5iXYr6Q-MJC-10" value="*" style="text;html=1;align=center;verticalAlign=middle;resizable=0;points=[];autosize=1;strokeColor=none;fillColor=none;" vertex="1" parent="dE8tSGFAzAWNITB8WUSD-13">
          <mxGeometry x="85" y="3" width="30" height="30" as="geometry" />
        </mxCell>
        <mxCell id="yZ9hM7ncI5iXYr6Q-MJC-11" value="1" style="text;html=1;align=center;verticalAlign=middle;resizable=0;points=[];autosize=1;strokeColor=none;fillColor=none;" vertex="1" parent="dE8tSGFAzAWNITB8WUSD-13">
          <mxGeometry x="115" y="161" width="30" height="30" as="geometry" />
        </mxCell>
        <mxCell id="ilzKF72MAawPVHj94fBm-24" value="*" style="text;html=1;align=center;verticalAlign=middle;resizable=0;points=[];autosize=1;strokeColor=none;fillColor=none;" vertex="1" parent="dE8tSGFAzAWNITB8WUSD-13">
          <mxGeometry x="180" y="105" width="30" height="30" as="geometry" />
        </mxCell>
        <mxCell id="C6cJlX6YQ1j8EcEWztLo-27" value="&lt;span style=&quot;color: rgb(0, 0, 0); font-family: Helvetica; font-size: 12px; font-style: normal; font-variant-ligatures: normal; font-variant-caps: normal; font-weight: 400; letter-spacing: normal; orphans: 2; text-align: center; text-indent: 0px; text-transform: none; widows: 2; word-spacing: 0px; -webkit-text-stroke-width: 0px; white-space: nowrap; background-color: rgb(251, 251, 251); text-decoration-thickness: initial; text-decoration-style: initial; text-decoration-color: initial; display: inline !important; float: none;&quot;&gt;1&lt;/span&gt;" style="text;whiteSpace=wrap;html=1;" vertex="1" parent="dE8tSGFAzAWNITB8WUSD-13">
          <mxGeometry x="21" y="125" width="40" height="40" as="geometry" />
        </mxCell>
        <mxCell id="ODth3-OMwyShCsxj6PBK-41" value="" style="group" connectable="0" vertex="1" parent="WIyWlLk6GJQsqaUBKTNV-1">
          <mxGeometry x="350" y="-920" width="160" height="140" as="geometry" />
        </mxCell>
        <mxCell id="5TZPlUDZTr1wL6foJFkj-24" value="airplane" style="swimlane;fontStyle=0;childLayout=stackLayout;horizontal=1;startSize=26;fillColor=none;horizontalStack=0;resizeParent=1;resizeParentMax=0;resizeLast=0;collapsible=1;marginBottom=0;whiteSpace=wrap;html=1;" vertex="1" parent="ODth3-OMwyShCsxj6PBK-41">
          <mxGeometry width="140" height="110" as="geometry" />
        </mxCell>
        <mxCell id="5TZPlUDZTr1wL6foJFkj-25" value="&lt;div&gt;id&lt;/div&gt;&lt;div&gt;registration_number&lt;/div&gt;&lt;div&gt;begin_of_operation&lt;/div&gt;&lt;div&gt;status&lt;/div&gt;&lt;div&gt;&lt;br&gt;&lt;/div&gt;" style="text;strokeColor=none;fillColor=none;align=left;verticalAlign=top;spacingLeft=4;spacingRight=4;overflow=hidden;rotatable=0;points=[[0,0.5],[1,0.5]];portConstraint=eastwest;whiteSpace=wrap;html=1;" vertex="1" parent="5TZPlUDZTr1wL6foJFkj-24">
          <mxGeometry y="26" width="140" height="84" as="geometry" />
        </mxCell>
        <mxCell id="yZ9hM7ncI5iXYr6Q-MJC-17" value="*" style="text;html=1;align=center;verticalAlign=middle;resizable=0;points=[];autosize=1;strokeColor=none;fillColor=none;" vertex="1" parent="ODth3-OMwyShCsxj6PBK-41">
          <mxGeometry x="30" y="110" width="30" height="30" as="geometry" />
        </mxCell>
        <mxCell id="C6cJlX6YQ1j8EcEWztLo-16" value="1" style="text;html=1;align=center;verticalAlign=middle;resizable=0;points=[];autosize=1;strokeColor=none;fillColor=none;" vertex="1" parent="ODth3-OMwyShCsxj6PBK-41">
          <mxGeometry x="130" y="40" width="30" height="30" as="geometry" />
        </mxCell>
        <mxCell id="9AFrQC5tuZRdLCmCFJYH-29" value="" style="endArrow=none;html=1;rounded=0;entryX=0.5;entryY=0;entryDx=0;entryDy=0;exitX=0.42;exitY=1.045;exitDx=0;exitDy=0;exitPerimeter=0;" edge="1" parent="WIyWlLk6GJQsqaUBKTNV-1" source="5TZPlUDZTr1wL6foJFkj-25" target="5TZPlUDZTr1wL6foJFkj-22">
          <mxGeometry width="50" height="50" relative="1" as="geometry">
            <mxPoint x="317" y="-777" as="sourcePoint" />
            <mxPoint x="517" y="-594" as="targetPoint" />
            <Array as="points">
              <mxPoint x="409" y="-770" />
              <mxPoint x="470" y="-770" />
            </Array>
          </mxGeometry>
        </mxCell>
        <mxCell id="C6cJlX6YQ1j8EcEWztLo-28" value="&lt;span style=&quot;text-align: center; text-wrap: nowrap;&quot;&gt;1&lt;/span&gt;" style="text;whiteSpace=wrap;html=1;" vertex="1" parent="WIyWlLk6GJQsqaUBKTNV-1">
          <mxGeometry x="-150" y="-733.75" width="40" height="40" as="geometry" />
        </mxCell>
        <mxCell id="C6cJlX6YQ1j8EcEWztLo-30" value="&lt;span style=&quot;color: rgb(0, 0, 0); font-family: Helvetica; font-size: 12px; font-style: normal; font-variant-ligatures: normal; font-variant-caps: normal; font-weight: 400; letter-spacing: normal; orphans: 2; text-align: center; text-indent: 0px; text-transform: none; widows: 2; word-spacing: 0px; -webkit-text-stroke-width: 0px; white-space: nowrap; background-color: rgb(251, 251, 251); text-decoration-thickness: initial; text-decoration-style: initial; text-decoration-color: initial; display: inline !important; float: none;&quot;&gt;1&lt;/span&gt;" style="text;whiteSpace=wrap;html=1;" vertex="1" parent="WIyWlLk6GJQsqaUBKTNV-1">
          <mxGeometry x="-160" y="-544" width="40" height="40" as="geometry" />
        </mxCell>
        <mxCell id="C6cJlX6YQ1j8EcEWztLo-31" value="&lt;span style=&quot;color: rgb(0, 0, 0); font-family: Helvetica; font-size: 12px; font-style: normal; font-variant-ligatures: normal; font-variant-caps: normal; font-weight: 400; letter-spacing: normal; orphans: 2; text-align: center; text-indent: 0px; text-transform: none; widows: 2; word-spacing: 0px; -webkit-text-stroke-width: 0px; white-space: nowrap; background-color: rgb(251, 251, 251); text-decoration-thickness: initial; text-decoration-style: initial; text-decoration-color: initial; display: inline !important; float: none;&quot;&gt;*&lt;/span&gt;" style="text;whiteSpace=wrap;html=1;" vertex="1" parent="WIyWlLk6GJQsqaUBKTNV-1">
          <mxGeometry x="-80" y="-624" width="40" height="40" as="geometry" />
        </mxCell>
        <mxCell id="C6cJlX6YQ1j8EcEWztLo-33" value="&lt;span style=&quot;color: rgb(0, 0, 0); font-family: Helvetica; font-size: 12px; font-style: normal; font-variant-ligatures: normal; font-variant-caps: normal; font-weight: 400; letter-spacing: normal; orphans: 2; text-align: center; text-indent: 0px; text-transform: none; widows: 2; word-spacing: 0px; -webkit-text-stroke-width: 0px; white-space: nowrap; background-color: rgb(251, 251, 251); text-decoration-thickness: initial; text-decoration-style: initial; text-decoration-color: initial; display: inline !important; float: none;&quot;&gt;*&lt;/span&gt;" style="text;whiteSpace=wrap;html=1;" vertex="1" parent="WIyWlLk6GJQsqaUBKTNV-1">
          <mxGeometry x="-150" y="-657" width="20" height="30" as="geometry" />
        </mxCell>
        <mxCell id="C6cJlX6YQ1j8EcEWztLo-34" value="&lt;span style=&quot;color: rgb(0, 0, 0); font-family: Helvetica; font-size: 12px; font-style: normal; font-variant-ligatures: normal; font-variant-caps: normal; font-weight: 400; letter-spacing: normal; orphans: 2; text-align: center; text-indent: 0px; text-transform: none; widows: 2; word-spacing: 0px; -webkit-text-stroke-width: 0px; white-space: nowrap; background-color: rgb(251, 251, 251); text-decoration-thickness: initial; text-decoration-style: initial; text-decoration-color: initial; display: inline !important; float: none;&quot;&gt;*&lt;/span&gt;" style="text;whiteSpace=wrap;html=1;" vertex="1" parent="WIyWlLk6GJQsqaUBKTNV-1">
          <mxGeometry x="-160" y="-554" width="40" height="40" as="geometry" />
        </mxCell>
        <mxCell id="xT6Af0WPOR4oWVvRTbGl-0" value="" style="endArrow=none;html=1;rounded=0;entryX=1;entryY=0.5;entryDx=0;entryDy=0;exitX=-0.009;exitY=0.685;exitDx=0;exitDy=0;exitPerimeter=0;" edge="1" parent="WIyWlLk6GJQsqaUBKTNV-1" source="ODth3-OMwyShCsxj6PBK-40" target="5TZPlUDZTr1wL6foJFkj-13">
          <mxGeometry width="50" height="50" relative="1" as="geometry">
            <mxPoint x="-240" y="-924" as="sourcePoint" />
            <mxPoint x="-500" y="-640" as="targetPoint" />
            <Array as="points">
              <mxPoint x="-260" y="-924" />
              <mxPoint x="-260" y="-680" />
            </Array>
          </mxGeometry>
        </mxCell>
        <mxCell id="pxWOrxdSQnaIc07EyeiF-1" value="&lt;span style=&quot;color: rgb(0, 0, 0); font-family: Helvetica; font-size: 12px; font-style: normal; font-variant-ligatures: normal; font-variant-caps: normal; font-weight: 400; letter-spacing: normal; orphans: 2; text-align: center; text-indent: 0px; text-transform: none; widows: 2; word-spacing: 0px; -webkit-text-stroke-width: 0px; white-space: nowrap; background-color: rgb(251, 251, 251); text-decoration-thickness: initial; text-decoration-style: initial; text-decoration-color: initial; display: inline !important; float: none;&quot;&gt;1&lt;/span&gt;" style="text;whiteSpace=wrap;html=1;" vertex="1" parent="WIyWlLk6GJQsqaUBKTNV-1">
          <mxGeometry x="-250" y="-947" width="40" height="40" as="geometry" />
        </mxCell>
        <mxCell id="ilzKF72MAawPVHj94fBm-26" value="1" style="text;html=1;align=center;verticalAlign=middle;resizable=0;points=[];autosize=1;strokeColor=none;fillColor=none;" vertex="1" parent="WIyWlLk6GJQsqaUBKTNV-1">
          <mxGeometry x="-480" y="-860" width="30" height="30" as="geometry" />
        </mxCell>
        <mxCell id="ilzKF72MAawPVHj94fBm-27" value="1" style="text;html=1;align=center;verticalAlign=middle;resizable=0;points=[];autosize=1;strokeColor=none;fillColor=none;container=0;" vertex="1" parent="WIyWlLk6GJQsqaUBKTNV-1">
          <mxGeometry x="-560" y="-917.5" width="30" height="30" as="geometry" />
        </mxCell>
        <mxCell id="ODth3-OMwyShCsxj6PBK-0" value="1" style="text;html=1;align=center;verticalAlign=middle;resizable=0;points=[];autosize=1;strokeColor=none;fillColor=none;" vertex="1" parent="WIyWlLk6GJQsqaUBKTNV-1">
          <mxGeometry x="-410" y="-780.5" width="30" height="30" as="geometry" />
        </mxCell>
        <mxCell id="iLmHEP5_-U6pqt9_wlRn-5" value="" style="endArrow=block;endSize=16;endFill=0;html=1;rounded=0;entryX=0.5;entryY=0;entryDx=0;entryDy=0;exitX=1;exitY=0.5;exitDx=0;exitDy=0;" edge="1" parent="WIyWlLk6GJQsqaUBKTNV-1" source="9AFrQC5tuZRdLCmCFJYH-2" target="ODth3-OMwyShCsxj6PBK-39">
          <mxGeometry width="160" relative="1" as="geometry">
            <mxPoint x="-570" y="-980" as="sourcePoint" />
            <mxPoint x="-410" y="-980" as="targetPoint" />
            <Array as="points">
              <mxPoint x="-160" y="-1062" />
            </Array>
          </mxGeometry>
        </mxCell>
        <mxCell id="iLmHEP5_-U6pqt9_wlRn-8" value="" style="endArrow=none;html=1;rounded=0;entryX=0;entryY=0.5;entryDx=0;entryDy=0;exitX=1.023;exitY=0.423;exitDx=0;exitDy=0;exitPerimeter=0;" edge="1" parent="WIyWlLk6GJQsqaUBKTNV-1" source="5TZPlUDZTr1wL6foJFkj-49" target="5TZPlUDZTr1wL6foJFkj-25">
          <mxGeometry width="50" height="50" relative="1" as="geometry">
            <mxPoint x="270" y="-650" as="sourcePoint" />
            <mxPoint x="320" y="-700" as="targetPoint" />
            <Array as="points">
              <mxPoint x="240" y="-644" />
              <mxPoint x="240" y="-852" />
            </Array>
          </mxGeometry>
        </mxCell>
      </root>
    </mxGraphModel>
  </diagram>
</mxfile>
